<svg width="20" height="20" viewBox="0 0 20 20" fill="none" xmlns="http://www.w3.org/2000/svg">
<path d="M13.75 18.9583H6.25C3.5 18.9583 3.125 17.4583 3.125 15.8333V8.5166C3.125 8.17493 3.40833 7.8916 3.75 7.8916C4.09167 7.8916 4.375 8.17493 4.375 8.5166V15.8333C4.375 17.2833 4.625 17.7083 6.25 17.7083H13.75C15.375 17.7083 15.625 17.2833 15.625 15.8333V8.5166C15.625 8.17493 15.9083 7.8916 16.25 7.8916C16.5917 7.8916 16.875 8.17493 16.875 8.5166V15.8333C16.875 17.4583 16.5 18.9583 13.75 18.9583Z" fill="white"/>
<path d="M15.8334 8.95817H4.16675C2.15008 8.95817 1.04175 7.84984 1.04175 5.83317V4.1665C1.04175 2.14984 2.15008 1.0415 4.16675 1.0415H15.8334C17.8501 1.0415 18.9584 2.14984 18.9584 4.1665V5.83317C18.9584 7.84984 17.8501 8.95817 15.8334 8.95817ZM4.16675 2.2915C2.85008 2.2915 2.29175 2.84984 2.29175 4.1665V5.83317C2.29175 7.14984 2.85008 7.70817 4.16675 7.70817H15.8334C17.1501 7.70817 17.7084 7.14984 17.7084 5.83317V4.1665C17.7084 2.84984 17.1501 2.2915 15.8334 2.2915H4.16675Z" fill="white"/>
<path d="M11.5167 12.2915H8.4834C8.14173 12.2915 7.8584 12.0082 7.8584 11.6665C7.8584 11.3248 8.14173 11.0415 8.4834 11.0415H11.5167C11.8584 11.0415 12.1417 11.3248 12.1417 11.6665C12.1417 12.0082 11.8584 12.2915 11.5167 12.2915Z" fill="white"/>
</svg>
