<svg width="20" height="20" viewBox="0 0 20 20" fill="none" xmlns="http://www.w3.org/2000/svg">
<path d="M9.50008 18.9585H6.33341C2.67508 18.9585 1.04175 17.3252 1.04175 13.6668V10.5002C1.04175 6.84183 2.67508 5.2085 6.33341 5.2085H8.83341C9.17508 5.2085 9.45841 5.49183 9.45841 5.8335C9.45841 6.17516 9.17508 6.4585 8.83341 6.4585H6.33341C3.35008 6.4585 2.29175 7.51683 2.29175 10.5002V13.6668C2.29175 16.6502 3.35008 17.7085 6.33341 17.7085H9.50008C12.4834 17.7085 13.5417 16.6502 13.5417 13.6668V11.1668C13.5417 10.8252 13.8251 10.5418 14.1667 10.5418C14.5084 10.5418 14.7917 10.8252 14.7917 11.1668V13.6668C14.7917 17.3252 13.1584 18.9585 9.50008 18.9585Z" fill="white"/>
<path d="M14.1666 11.7916H11.4999C9.15825 11.7916 8.20825 10.8416 8.20825 8.49991V5.83324C8.20825 5.58324 8.35825 5.34991 8.59159 5.25824C8.82492 5.15824 9.09159 5.21658 9.27492 5.39158L14.6083 10.7249C14.7833 10.8999 14.8416 11.1749 14.7416 11.4082C14.6499 11.6416 14.4166 11.7916 14.1666 11.7916ZM9.45825 7.34158V8.49991C9.45825 10.1582 9.84159 10.5416 11.4999 10.5416H12.6583L9.45825 7.34158Z" fill="white"/>
<path d="M13.0001 2.2915H9.66675C9.32508 2.2915 9.04175 2.00817 9.04175 1.6665C9.04175 1.32484 9.32508 1.0415 9.66675 1.0415H13.0001C13.3417 1.0415 13.6251 1.32484 13.6251 1.6665C13.6251 2.00817 13.3417 2.2915 13.0001 2.2915Z" fill="white"/>
<path d="M5.83325 4.7915C5.49159 4.7915 5.20825 4.50817 5.20825 4.1665C5.20825 2.4415 6.60825 1.0415 8.33325 1.0415H10.5166C10.8583 1.0415 11.1416 1.32484 11.1416 1.6665C11.1416 2.00817 10.8583 2.2915 10.5166 2.2915H8.33325C7.29992 2.2915 6.45825 3.13317 6.45825 4.1665C6.45825 4.50817 6.17492 4.7915 5.83325 4.7915Z" fill="white"/>
<path d="M15.9917 14.7915C15.65 14.7915 15.3667 14.5082 15.3667 14.1665C15.3667 13.8248 15.65 13.5415 15.9917 13.5415C16.9417 13.5415 17.7084 12.7665 17.7084 11.8248V6.6665C17.7084 6.32484 17.9917 6.0415 18.3334 6.0415C18.675 6.0415 18.9584 6.32484 18.9584 6.6665V11.8248C18.9584 13.4582 17.625 14.7915 15.9917 14.7915Z" fill="white"/>
<path d="M18.3333 7.29174H15.8333C13.6166 7.29174 12.7083 6.38341 12.7083 4.16674V1.66674C12.7083 1.41674 12.8583 1.18341 13.0916 1.09174C13.3249 0.991739 13.5916 1.05007 13.7749 1.22507L18.7749 6.22507C18.9499 6.40007 19.0083 6.67507 18.9083 6.90841C18.8166 7.14174 18.5833 7.29174 18.3333 7.29174ZM13.9583 3.17507V4.16674C13.9583 5.69174 14.3083 6.04174 15.8333 6.04174H16.8249L13.9583 3.17507Z" fill="white"/>
</svg>
