<svg width="20" height="20" viewBox="0 0 20 20" fill="none" xmlns="http://www.w3.org/2000/svg">
<g filter="url(#filter0_d_19_3817)">
<path d="M9.90005 12.4916C9.74172 12.4916 9.58338 12.4333 9.45838 12.3083L7.32505 10.1749C7.08338 9.93327 7.08338 9.53327 7.32505 9.2916C7.56672 9.04993 7.96672 9.04993 8.20838 9.2916L9.90005 10.9833L11.5917 9.2916C11.8334 9.04993 12.2334 9.04993 12.475 9.2916C12.7167 9.53327 12.7167 9.93327 12.475 10.1749L10.3417 12.3083C10.2167 12.4333 10.0584 12.4916 9.90005 12.4916Z" fill="white"/>
</g>
<g filter="url(#filter1_d_19_3817)">
<path d="M9.90002 12.4335C9.55836 12.4335 9.27502 12.1502 9.27502 11.8085V3.3335C9.27502 2.99183 9.55836 2.7085 9.90002 2.7085C10.2417 2.7085 10.525 2.99183 10.525 3.3335V11.8085C10.525 12.1502 10.2417 12.4335 9.90002 12.4335Z" fill="white"/>
</g>
<g filter="url(#filter2_d_19_3817)">
<path d="M10 17.4416C5.70837 17.4416 2.70837 14.4416 2.70837 10.1499C2.70837 9.80824 2.99171 9.5249 3.33337 9.5249C3.67504 9.5249 3.95837 9.80824 3.95837 10.1499C3.95837 13.7082 6.44171 16.1916 10 16.1916C13.5584 16.1916 16.0417 13.7082 16.0417 10.1499C16.0417 9.80824 16.325 9.5249 16.6667 9.5249C17.0084 9.5249 17.2917 9.80824 17.2917 10.1499C17.2917 14.4416 14.2917 17.4416 10 17.4416Z" fill="white"/>
</g>
<defs>
<filter id="filter0_d_19_3817" x="5.1438" y="7.11035" width="9.51245" height="7.38135" filterUnits="userSpaceOnUse" color-interpolation-filters="sRGB">
<feFlood flood-opacity="0" result="BackgroundImageFix"/>
<feColorMatrix in="SourceAlpha" type="matrix" values="0 0 0 0 0 0 0 0 0 0 0 0 0 0 0 0 0 0 127 0" result="hardAlpha"/>
<feOffset/>
<feGaussianBlur stdDeviation="1"/>
<feComposite in2="hardAlpha" operator="out"/>
<feColorMatrix type="matrix" values="0 0 0 0 0 0 0 0 0 0 0 0 0 0 0 0 0 0 0.15 0"/>
<feBlend mode="normal" in2="BackgroundImageFix" result="effect1_dropShadow_19_3817"/>
<feBlend mode="normal" in="SourceGraphic" in2="effect1_dropShadow_19_3817" result="shape"/>
</filter>
<filter id="filter1_d_19_3817" x="7.27502" y="0.708496" width="5.25" height="13.7251" filterUnits="userSpaceOnUse" color-interpolation-filters="sRGB">
<feFlood flood-opacity="0" result="BackgroundImageFix"/>
<feColorMatrix in="SourceAlpha" type="matrix" values="0 0 0 0 0 0 0 0 0 0 0 0 0 0 0 0 0 0 127 0" result="hardAlpha"/>
<feOffset/>
<feGaussianBlur stdDeviation="1"/>
<feComposite in2="hardAlpha" operator="out"/>
<feColorMatrix type="matrix" values="0 0 0 0 0 0 0 0 0 0 0 0 0 0 0 0 0 0 0.15 0"/>
<feBlend mode="normal" in2="BackgroundImageFix" result="effect1_dropShadow_19_3817"/>
<feBlend mode="normal" in="SourceGraphic" in2="effect1_dropShadow_19_3817" result="shape"/>
</filter>
<filter id="filter2_d_19_3817" x="0.708374" y="7.5249" width="18.5834" height="11.9165" filterUnits="userSpaceOnUse" color-interpolation-filters="sRGB">
<feFlood flood-opacity="0" result="BackgroundImageFix"/>
<feColorMatrix in="SourceAlpha" type="matrix" values="0 0 0 0 0 0 0 0 0 0 0 0 0 0 0 0 0 0 127 0" result="hardAlpha"/>
<feOffset/>
<feGaussianBlur stdDeviation="1"/>
<feComposite in2="hardAlpha" operator="out"/>
<feColorMatrix type="matrix" values="0 0 0 0 0 0 0 0 0 0 0 0 0 0 0 0 0 0 0.15 0"/>
<feBlend mode="normal" in2="BackgroundImageFix" result="effect1_dropShadow_19_3817"/>
<feBlend mode="normal" in="SourceGraphic" in2="effect1_dropShadow_19_3817" result="shape"/>
</filter>
</defs>
</svg>
