<svg width="20" height="20" viewBox="0 0 20 20" fill="none" xmlns="http://www.w3.org/2000/svg">
<g clip-path="url(#clip0_19_3807)">
<path d="M0 15.2617C0.0911791 15.0159 0.0750274 14.7537 0.109936 14.4995C0.375658 12.5646 1.08946 10.8154 2.2628 9.26684C3.93477 7.05977 6.11733 5.63856 8.80425 5.02061C9.33622 4.89849 9.87756 4.82532 10.4225 4.79427C10.5518 4.7869 10.5908 4.74531 10.5903 4.61004C10.5846 3.07303 10.5862 1.53603 10.5856 -0.000976562C10.5987 -0.000976562 10.6117 -0.000976562 10.6247 -0.000976562C10.6445 0.0227101 10.6612 0.0506078 10.6846 0.0700836C13.7576 2.59772 16.8317 5.1243 19.9057 7.65036C19.9317 7.67194 19.9515 7.71878 20 7.68931V7.76826C19.8661 7.78826 19.7921 7.89933 19.6988 7.97671C16.6951 10.4512 13.6935 12.9278 10.6914 15.4043C10.6674 15.4238 10.6409 15.4396 10.5872 15.4764V15.2638C10.5872 13.8115 10.5856 12.3587 10.5898 10.9065C10.5898 10.7659 10.5773 10.7049 10.4074 10.7175C8.67452 10.8486 7.06716 11.3755 5.58589 12.2845C3.83369 13.3599 2.45819 14.8064 1.54744 16.6639C1.03684 17.7056 0.617413 18.7936 0.156307 19.8601C0.135987 19.9074 0.110978 19.9527 0.0880529 19.9985C0.00781535 19.9401 0.0411608 19.8537 0.0406398 19.7801C0.0390767 18.4789 0.0406398 17.1782 0.0380347 15.877C0.0380347 15.8028 0.0729433 15.718 0 15.6549V15.2606L0 15.2617ZM1.27025 14.7122C1.36091 14.6958 1.37915 14.6253 1.41562 14.5748C2.63898 12.872 4.18851 11.5634 6.07044 10.6617C7.82629 9.82058 9.68009 9.44686 11.6214 9.49792C11.7522 9.5016 11.7647 9.5474 11.7642 9.65741C11.7605 10.6433 11.7621 11.6292 11.7621 12.6151C11.7621 12.724 11.7621 12.8325 11.7621 12.9425C11.8397 12.9414 11.8679 12.8909 11.9059 12.8599C13.9374 11.187 15.9662 9.5116 18.0014 7.84301C18.1467 7.72405 18.0748 7.68194 17.9821 7.60561C15.9438 5.9307 13.9066 4.25473 11.8684 2.58035C11.8413 2.55824 11.8173 2.51455 11.7621 2.54719C11.7621 3.51466 11.7637 4.48634 11.7605 5.45802C11.76 5.61962 11.833 5.83385 11.7288 5.92754C11.6407 6.00702 11.4328 5.95491 11.2775 5.95491C10.2584 5.95755 9.25337 6.07966 8.28219 6.39496C5.24462 7.38138 3.11311 9.37054 1.88558 12.3424C1.57349 13.0983 1.38749 13.8915 1.27025 14.7127V14.7122Z" fill="white"/>
</g>
<defs>
<clipPath id="clip0_19_3807">
<rect width="20" height="20" fill="white"/>
</clipPath>
</defs>
</svg>
