<svg width="22" height="22" viewBox="0 0 22 22" fill="none" xmlns="http://www.w3.org/2000/svg">
<g filter="url(#filter0_d_19_3809)">
<path d="M16.1584 15.7915H7.28341C6.45841 15.7915 5.66674 15.4415 5.10841 14.8332C4.55008 14.2248 4.26675 13.4082 4.33341 12.5832L5.02508 4.28317C5.05008 4.02484 4.95841 3.77484 4.78341 3.58318C4.60841 3.39151 4.36674 3.2915 4.10841 3.2915H2.66675C2.32508 3.2915 2.04175 3.00817 2.04175 2.6665C2.04175 2.32484 2.32508 2.0415 2.66675 2.0415H4.11675C4.72509 2.0415 5.30008 2.29983 5.70841 2.7415C5.93341 2.9915 6.10008 3.28317 6.19174 3.60817H16.6001C17.4417 3.60817 18.2167 3.9415 18.7834 4.5415C19.3417 5.14984 19.6251 5.94151 19.5584 6.78317L19.1084 13.0332C19.0167 14.5582 17.6834 15.7915 16.1584 15.7915ZM6.23341 4.84983L5.58341 12.6832C5.54175 13.1665 5.70008 13.6248 6.02508 13.9832C6.35008 14.3415 6.80008 14.5332 7.28341 14.5332H16.1584C17.0251 14.5332 17.8084 13.7998 17.8751 12.9332L18.3251 6.68318C18.3584 6.19151 18.2001 5.72485 17.8751 5.38318C17.5501 5.03318 17.1001 4.84149 16.6084 4.84149H6.23341V4.84983Z" fill="white"/>
</g>
<g filter="url(#filter1_d_19_3809)">
<path d="M14.5417 19.9583C13.625 19.9583 12.875 19.2083 12.875 18.2917C12.875 17.375 13.625 16.625 14.5417 16.625C15.4583 16.625 16.2083 17.375 16.2083 18.2917C16.2083 19.2083 15.4583 19.9583 14.5417 19.9583ZM14.5417 17.875C14.3083 17.875 14.125 18.0583 14.125 18.2917C14.125 18.525 14.3083 18.7083 14.5417 18.7083C14.775 18.7083 14.9583 18.525 14.9583 18.2917C14.9583 18.0583 14.775 17.875 14.5417 17.875Z" fill="white"/>
</g>
<g filter="url(#filter2_d_19_3809)">
<path d="M7.87492 19.9583C6.95825 19.9583 6.20825 19.2083 6.20825 18.2917C6.20825 17.375 6.95825 16.625 7.87492 16.625C8.79159 16.625 9.54159 17.375 9.54159 18.2917C9.54159 19.2083 8.79159 19.9583 7.87492 19.9583ZM7.87492 17.875C7.64159 17.875 7.45825 18.0583 7.45825 18.2917C7.45825 18.525 7.64159 18.7083 7.87492 18.7083C8.10825 18.7083 8.29159 18.525 8.29159 18.2917C8.29159 18.0583 8.10825 17.875 7.87492 17.875Z" fill="white"/>
</g>
<g filter="url(#filter3_d_19_3809)">
<path d="M18.5 8.2915H8.5C8.15833 8.2915 7.875 8.00817 7.875 7.6665C7.875 7.32484 8.15833 7.0415 8.5 7.0415H18.5C18.8417 7.0415 19.125 7.32484 19.125 7.6665C19.125 8.00817 18.8417 8.2915 18.5 8.2915Z" fill="white"/>
</g>
<defs>
<filter id="filter0_d_19_3809" x="0.041748" y="0.0415039" width="21.5264" height="17.75" filterUnits="userSpaceOnUse" color-interpolation-filters="sRGB">
<feFlood flood-opacity="0" result="BackgroundImageFix"/>
<feColorMatrix in="SourceAlpha" type="matrix" values="0 0 0 0 0 0 0 0 0 0 0 0 0 0 0 0 0 0 127 0" result="hardAlpha"/>
<feOffset/>
<feGaussianBlur stdDeviation="1"/>
<feComposite in2="hardAlpha" operator="out"/>
<feColorMatrix type="matrix" values="0 0 0 0 0 0 0 0 0 0 0 0 0 0 0 0 0 0 0.15 0"/>
<feBlend mode="normal" in2="BackgroundImageFix" result="effect1_dropShadow_19_3809"/>
<feBlend mode="normal" in="SourceGraphic" in2="effect1_dropShadow_19_3809" result="shape"/>
</filter>
<filter id="filter1_d_19_3809" x="10.875" y="14.625" width="7.33325" height="7.3335" filterUnits="userSpaceOnUse" color-interpolation-filters="sRGB">
<feFlood flood-opacity="0" result="BackgroundImageFix"/>
<feColorMatrix in="SourceAlpha" type="matrix" values="0 0 0 0 0 0 0 0 0 0 0 0 0 0 0 0 0 0 127 0" result="hardAlpha"/>
<feOffset/>
<feGaussianBlur stdDeviation="1"/>
<feComposite in2="hardAlpha" operator="out"/>
<feColorMatrix type="matrix" values="0 0 0 0 0 0 0 0 0 0 0 0 0 0 0 0 0 0 0.15 0"/>
<feBlend mode="normal" in2="BackgroundImageFix" result="effect1_dropShadow_19_3809"/>
<feBlend mode="normal" in="SourceGraphic" in2="effect1_dropShadow_19_3809" result="shape"/>
</filter>
<filter id="filter2_d_19_3809" x="4.20825" y="14.625" width="7.33325" height="7.3335" filterUnits="userSpaceOnUse" color-interpolation-filters="sRGB">
<feFlood flood-opacity="0" result="BackgroundImageFix"/>
<feColorMatrix in="SourceAlpha" type="matrix" values="0 0 0 0 0 0 0 0 0 0 0 0 0 0 0 0 0 0 127 0" result="hardAlpha"/>
<feOffset/>
<feGaussianBlur stdDeviation="1"/>
<feComposite in2="hardAlpha" operator="out"/>
<feColorMatrix type="matrix" values="0 0 0 0 0 0 0 0 0 0 0 0 0 0 0 0 0 0 0.15 0"/>
<feBlend mode="normal" in2="BackgroundImageFix" result="effect1_dropShadow_19_3809"/>
<feBlend mode="normal" in="SourceGraphic" in2="effect1_dropShadow_19_3809" result="shape"/>
</filter>
<filter id="filter3_d_19_3809" x="5.875" y="5.0415" width="15.25" height="5.25" filterUnits="userSpaceOnUse" color-interpolation-filters="sRGB">
<feFlood flood-opacity="0" result="BackgroundImageFix"/>
<feColorMatrix in="SourceAlpha" type="matrix" values="0 0 0 0 0 0 0 0 0 0 0 0 0 0 0 0 0 0 127 0" result="hardAlpha"/>
<feOffset/>
<feGaussianBlur stdDeviation="1"/>
<feComposite in2="hardAlpha" operator="out"/>
<feColorMatrix type="matrix" values="0 0 0 0 0 0 0 0 0 0 0 0 0 0 0 0 0 0 0.15 0"/>
<feBlend mode="normal" in2="BackgroundImageFix" result="effect1_dropShadow_19_3809"/>
<feBlend mode="normal" in="SourceGraphic" in2="effect1_dropShadow_19_3809" result="shape"/>
</filter>
</defs>
</svg>
